#!OML:ASF F:\VICON\USERDATA\INSTALL\rory3\rory3.ASF
:FULLY-SPECIFIED
:DEGREES
2057
root 13.7584 17.8531 -8.01206 358.989 173.439 -2.57098
lowerback 10.9378 1.6791 -1.23535
upperback 2.01328 2.2441 -0.601353
thorax -4.04808 1.20088 -0.255059
lowerneck -15.5666 -0.745397 -9.17429
upperneck 44.5293 10.6348 0.0316056
head 19.6811 4.73551 4.57453
rclavicle -2.45996e-015 5.76476e-015
rhumerus -33.6082 -9.95336 -82.7186
rradius 37.3593
rwrist 4.2892
rhand -13.8945 6.1473
rfingers 7.12502
rthumb 12.2308 -23.4751
lclavicle -2.45996e-015 5.76476e-015
lhumerus -32.9871 12.2298 79.636
lradius 36.9215
lwrist -2.39992
lhand -19.1913 28.3467
lfingers 7.12502
lthumb 7.12049 58.2069
rfemur -13.4152 4.29087 17.3429
rtibia 36.9739
rfoot -20.9875 1.21389
rtoes -4.19129
lfemur -10.6466 -2.35948 -24.6998
ltibia 23.8759
lfoot -11.1534 -12.7093
ltoes -2.57793
2058
root 13.7818 17.8522 -8.01041 359.121 173.934 -2.52215
lowerback 10.8054 1.66383 -1.25025
upperback 2.08391 2.22992 -0.604439
thorax -3.90152 1.19576 -0.241756
lowerneck -15.6353 -0.796417 -9.138
upperneck 44.5593 10.6717 -0.0889576
head 19.7401 4.74319 4.5296
rclavicle -9.64106e-015 8.15017e-015
rhumerus -33.4245 -9.46025 -82.8971
rradius 37.491
rwrist 3.67968
rhand -13.7794 6.13373
rfingers 7.12502
rthumb 12.3418 -23.482
lclavicle -9.64106e-015 8.15017e-015
lhumerus -32.8481 12.3667 79.4608
lradius 36.8672
lwrist -2.78224
lhand -20.0062 28.459
lfingers 7.12502
lthumb 6.33383 58.3443
rfemur -13.5841 4.328 17.3923
rtibia 36.6854
rfoot -20.6883 1.29329
rtoes -4.08723
lfemur -10.895 -2.59243 -24.573
ltibia 24.0602
lfoot -11.1822 -12.9315
ltoes -2.33935
2059
root 13.8075 17.8516 -8.01038 359.243 174.39 -2.47387
lowerback 10.7677 1.67314 -1.28217
upperback 2.04618 2.23591 -0.622277
thorax -3.9205 1.19818 -0.242714
lowerneck -15.5804 -0.888224 -9.18669
upperneck 44.6367 10.5966 -0.0369655
head 19.7761 4.7268 4.55876
rclavicle -1.98785e-016 -6.95746e-015
rhumerus -33.4893 -9.11548 -83.0742
rradius 37.6956
rwrist 3.12998
rhand -13.9118 5.93791
rfingers 7.12502
rthumb 12.2142 -23.6855
lclavicle -1.98785e-016 -6.95746e-015
lhumerus -32.9302 12.2947 79.2674
lradius 36.7872
lwrist -2.93435
lhand -20.2849 28.5439
lfingers 7.12502
lthumb 6.0648 58.4371
rfemur -13.7466 4.23264 17.4643
rtibia 36.4901
rfoot -20.3472 1.43348
rtoes -3.50789
lfemur -11.0884 -2.7353 -24.4456
ltibia 24.1632
lfoot -11.2923 -13.1739
ltoes -2.53684
2060
root 13.8353 17.8557 -8.01008 359.292 174.836 -2.424
lowerback 10.8094 1.69677 -1.30634
upperback 2.04756 2.26496 -0.655637
thorax -3.94182 1.21379 -0.269386
lowerneck -15.7793 6.69844 -11.3963
upperneck 45.0194 6.42309 4.05572
head 19.4057 -0.990792 4.57344
rclavicle -3.55328e-015 1.59028e-015
rhumerus -33.5264 -8.89372 -83.2392
rradius 37.8576
rwrist 2.66008
rhand -14.1432 5.96473
rfingers 7.12502
rthumb 11.9911 -23.6718
lclavicle -3.55328e-015 1.59028e-015
lhumerus -32.9674 12.2191 79.072
lradius 36.6538
lwrist -3.07511
lhand -20.2648 28.4424
lfingers 7.12502
lthumb 6.08414 58.3351
rfemur -13.8411 4.09939 17.5844
rtibia 36.3982
rfoot -20.1008 1.46852
rtoes -2.18762
lfemur -11.194 -2.89823 -24.3046
ltibia 24.212
lfoot -11.2835 -13.4926
ltoes -2.16621
2061
root 13.8626 17.8592 -8.00702 359.214 175.302 -2.42236
lowerback 10.8935 1.70248 -1.3925
upperback 2.16258 2.27478 -0.669524
thorax -3.87095 1.22457 -0.237435
lowerneck -16.0337 6.54922 -11.3692
upperneck 45.159 6.26042 3.96994
head 19.6088 -1.07667 4.51865
rclavicle 1.98785e-016 -3.37934e-015
rhumerus -33.3869 -8.78013 -83.3036
rradius 37.9273
rwrist 2.4496
rhand -14.2801 6.19444
rfingers 7.12502
rthumb 11.859 -23.4497
lclavicle 1.98785e-016 -3.37934e-015
lhumerus -32.862 12.3684 78.9032
lradius 36.5315
lwrist -3.2414
lhand -20.0459 28.7069
lfingers 7.12502
lthumb 6.29547 58.5934
rfemur -13.7894 3.8158 17.6799
rtibia 36.4193
rfoot -19.9786 1.35265
rtoes -1.56153
lfemur -11.1347 -3.17006 -24.2264
ltibia 24.2033
lfoot -11.2225 -13.7224
ltoes -1.97272
2062
root 13.8907 17.858 -8.00037 359.17 175.708 -2.44019
lowerback 11.0499 1.72926 -1.48774
upperback 2.16574 2.29995 -0.700187
thorax -3.95647 1.24018 -0.225106
lowerneck -16.0165 6.44857 -11.4922
upperneck 45.2845 6.06729 4.04309
head 19.7044 -1.18392 4.54518
rclavicle 5.73991e-015 -1.98785e-015
rhumerus -33.3535 -8.79145 -83.3362
rradius 37.9762
rwrist 2.41758
rhand -14.4476 6.13329
rfingers 7.12502
rthumb 11.6975 -23.5201
lclavicle 5.73991e-015 -1.98785e-015
lhumerus -32.8876 12.552 78.6681
lradius 36.306
lwrist -3.33963
lhand -19.911 28.839
lfingers 7.12502
lthumb 6.42571 58.7215
rfemur -13.7844 3.42699 17.7768
rtibia 36.5331
rfoot -19.8694 1.16297
rtoes -1.50664
lfemur -11.0806 -3.3323 -24.1632
ltibia 24.127
lfoot -11.2596 -13.9096
ltoes -2.64229
2063
root 13.9177 17.8538 -7.99653 359.218 176.158 -2.5849
lowerback 11.109 1.75179 -1.66842
upperback 2.11387 2.30348 -0.77913
thorax -4.04675 1.2441 -0.209714
lowerneck -15.8581 6.37658 -11.669
upperneck 45.3672 5.86226 4.22432
head 19.7187 -1.28406 4.62456
rclavicle 3.54085e-015 2.38542e-015
rhumerus -33.3798 -8.63145 -83.4353
rradius 38.0119
rwrist 2.11488
rhand -14.83 6.1434
rfingers 7.12502
rthumb 11.3287 -23.5306
lclavicle 3.54085e-015 2.38542e-015
lhumerus -32.9897 12.6221 78.4248
lradius 36.0901
lwrist -3.34899
lhand -19.6843 28.8629
lfingers 7.12502
lthumb 6.64461 58.7386
rfemur -13.846 2.90761 17.7063
rtibia 36.681
rfoot -19.8138 1.1495
rtoes -0.793228
lfemur -11.1061 -3.47123 -24.2452
ltibia 24.0174
lfoot -11.2474 -14.2024
ltoes -2.82424
2064
root 13.944 17.8537 -7.99621 359.286 176.603 -2.70923
lowerback 11.0197 1.74456 -1.81694
upperback 2.15143 2.28132 -0.865126
thorax -3.95991 1.23653 -0.208564
lowerneck -15.7993 6.34542 -11.661
upperneck 45.4228 5.76906 4.25994
head 19.7503 -1.31852 4.6254
rclavicle -3.22901e-014 2.5842e-015
rhumerus -33.2458 -8.48231 -83.572
rradius 37.914
rwrist 1.88385
rhand -15.0897 6.7123
rfingers 7.12502
rthumb 11.0782 -22.9753
lclavicle -3.22901e-014 2.5842e-015
lhumerus -32.9941 12.7446 78.1883
lradius 35.911
lwrist -3.46913
lhand -19.4611 28.7467
lfingers 7.12502
lthumb 6.86007 58.6156
rfemur -13.877 2.43822 17.6556
rtibia 36.8109
rfoot -19.7139 1.25869
rtoes 0.0260325
lfemur -11.1103 -3.67556 -24.3084
ltibia 23.867
lfoot -11.1165 -14.4878
ltoes -2.53405
2065
root 13.9723 17.8583 -7.99734 359.322 176.952 -2.66214
lowerback 10.9166 1.75613 -1.84154
upperback 2.22325 2.3032 -0.878106
thorax -3.82859 1.24941 -0.205995
lowerneck -15.6734 6.33547 -11.5759
upperneck 45.3659 5.78333 4.11242
head 19.6899 -1.30318 4.5342
rclavicle -2.77802e-014 1.36167e-014
rhumerus -33.0954 -8.40792 -83.6436
rradius 37.8214
rwrist 1.90674
rhand -15.0428 7.35643
rfingers 7.12502
rthumb 11.1235 -22.3288
lclavicle -2.77802e-014 1.36167e-014
lhumerus -32.9874 12.9515 77.9534
lradius 35.804
lwrist -3.85125
lhand -19.0063 28.8743
lfingers 7.12502
lthumb 7.29909 58.7284
rfemur -13.8255 2.14979 17.842
rtibia 36.8552
rfoot -19.5915 1.25757
rtoes 0.158356
lfemur -11.0539 -3.87696 -24.1789
ltibia 23.7198
lfoot -11.0976 -14.598
ltoes -3.20222
2066
root 14.001 17.8631 -8.00062 359.323 177.289 -2.73577
lowerback 10.8794 1.79481 -1.96353
upperback 2.26231 2.34623 -0.922462
thorax -3.77052 1.27384 -0.187532
lowerneck -15.425 6.29347 -11.5293
upperneck 45.1526 5.79841 3.91695
head 19.4917 -1.27477 4.41723
rclavicle -8.82107e-015 6.26172e-015
rhumerus -32.9146 -8.2837 -83.6698
rradius 37.5763
rwrist 1.8034
rhand -14.9028 7.66361
rfingers 7.12502
rthumb 11.2585 -22.0143
lclavicle -8.82107e-015 6.26172e-015
lhumerus -33.027 13.1434 77.7324
lradius 35.8819
lwrist -4.52441
lhand -17.5137 30.7455
lfingers 7.12502
lthumb 8.73966 60.5446
rfemur -13.698 1.87248 17.8965
rtibia 36.7781
rfoot -19.491 1.12464
rtoes -0.143625
lfemur -10.9997 -4.1974 -24.1872
ltibia 23.6407
lfoot -11.0464 -14.5545
ltoes -3.41153
